<mxfile host="65bd71144e">
    <diagram id="JPTRiWTT1zkp3u40iDrk" name="Page-2">
        <mxGraphModel dx="979" dy="662" grid="1" gridSize="10" guides="1" tooltips="1" connect="1" arrows="1" fold="1" page="0" pageScale="1" pageWidth="850" pageHeight="1100" math="0" shadow="0">
            <root>
                <mxCell id="0"/>
                <mxCell id="1" parent="0"/>
                <mxCell id="XobfELes2eheLk3CZ_iE-1" value="Aluno" style="swimlane;fontStyle=0;childLayout=stackLayout;horizontal=1;startSize=26;fillColor=none;horizontalStack=0;resizeParent=1;resizeParentMax=0;resizeLast=0;collapsible=1;marginBottom=0;" parent="1" vertex="1">
                    <mxGeometry x="125" y="402" width="160" height="364" as="geometry"/>
                </mxCell>
                <mxCell id="XobfELes2eheLk3CZ_iE-2" value="_id: ObjectId" style="text;strokeColor=none;fillColor=none;align=left;verticalAlign=top;spacingLeft=4;spacingRight=4;overflow=hidden;rotatable=0;points=[[0,0.5],[1,0.5]];portConstraint=eastwest;" parent="XobfELes2eheLk3CZ_iE-1" vertex="1">
                    <mxGeometry y="26" width="160" height="26" as="geometry"/>
                </mxCell>
                <mxCell id="XobfELes2eheLk3CZ_iE-3" value="nome: String" style="text;strokeColor=none;fillColor=none;align=left;verticalAlign=top;spacingLeft=4;spacingRight=4;overflow=hidden;rotatable=0;points=[[0,0.5],[1,0.5]];portConstraint=eastwest;" parent="XobfELes2eheLk3CZ_iE-1" vertex="1">
                    <mxGeometry y="52" width="160" height="26" as="geometry"/>
                </mxCell>
                <mxCell id="LKVzIDbZIAc9AaPxp5Y8-25" value="cpf: String" style="text;strokeColor=none;fillColor=none;align=left;verticalAlign=top;spacingLeft=4;spacingRight=4;overflow=hidden;rotatable=0;points=[[0,0.5],[1,0.5]];portConstraint=eastwest;" parent="XobfELes2eheLk3CZ_iE-1" vertex="1">
                    <mxGeometry y="78" width="160" height="26" as="geometry"/>
                </mxCell>
                <mxCell id="LKVzIDbZIAc9AaPxp5Y8-15" value="data_nascimento: DateTime" style="text;strokeColor=none;fillColor=none;align=left;verticalAlign=top;spacingLeft=4;spacingRight=4;overflow=hidden;rotatable=0;points=[[0,0.5],[1,0.5]];portConstraint=eastwest;" parent="XobfELes2eheLk3CZ_iE-1" vertex="1">
                    <mxGeometry y="104" width="160" height="26" as="geometry"/>
                </mxCell>
                <mxCell id="XobfELes2eheLk3CZ_iE-4" value="logradouro: String" style="text;strokeColor=none;fillColor=none;align=left;verticalAlign=top;spacingLeft=4;spacingRight=4;overflow=hidden;rotatable=0;points=[[0,0.5],[1,0.5]];portConstraint=eastwest;" parent="XobfELes2eheLk3CZ_iE-1" vertex="1">
                    <mxGeometry y="130" width="160" height="26" as="geometry"/>
                </mxCell>
                <mxCell id="LKVzIDbZIAc9AaPxp5Y8-14" value="num_imovel: String" style="text;strokeColor=none;fillColor=none;align=left;verticalAlign=top;spacingLeft=4;spacingRight=4;overflow=hidden;rotatable=0;points=[[0,0.5],[1,0.5]];portConstraint=eastwest;" parent="XobfELes2eheLk3CZ_iE-1" vertex="1">
                    <mxGeometry y="156" width="160" height="26" as="geometry"/>
                </mxCell>
                <mxCell id="LKVzIDbZIAc9AaPxp5Y8-27" value="complemento?: String" style="text;strokeColor=none;fillColor=none;align=left;verticalAlign=top;spacingLeft=4;spacingRight=4;overflow=hidden;rotatable=0;points=[[0,0.5],[1,0.5]];portConstraint=eastwest;" parent="XobfELes2eheLk3CZ_iE-1" vertex="1">
                    <mxGeometry y="182" width="160" height="26" as="geometry"/>
                </mxCell>
                <mxCell id="LKVzIDbZIAc9AaPxp5Y8-16" value="bairro: String" style="text;strokeColor=none;fillColor=none;align=left;verticalAlign=top;spacingLeft=4;spacingRight=4;overflow=hidden;rotatable=0;points=[[0,0.5],[1,0.5]];portConstraint=eastwest;" parent="XobfELes2eheLk3CZ_iE-1" vertex="1">
                    <mxGeometry y="208" width="160" height="26" as="geometry"/>
                </mxCell>
                <mxCell id="LKVzIDbZIAc9AaPxp5Y8-21" value="municipio: String" style="text;strokeColor=none;fillColor=none;align=left;verticalAlign=top;spacingLeft=4;spacingRight=4;overflow=hidden;rotatable=0;points=[[0,0.5],[1,0.5]];portConstraint=eastwest;" parent="XobfELes2eheLk3CZ_iE-1" vertex="1">
                    <mxGeometry y="234" width="160" height="26" as="geometry"/>
                </mxCell>
                <mxCell id="LKVzIDbZIAc9AaPxp5Y8-22" value="uf: String" style="text;strokeColor=none;fillColor=none;align=left;verticalAlign=top;spacingLeft=4;spacingRight=4;overflow=hidden;rotatable=0;points=[[0,0.5],[1,0.5]];portConstraint=eastwest;" parent="XobfELes2eheLk3CZ_iE-1" vertex="1">
                    <mxGeometry y="260" width="160" height="26" as="geometry"/>
                </mxCell>
                <mxCell id="LKVzIDbZIAc9AaPxp5Y8-23" value="email: String" style="text;strokeColor=none;fillColor=none;align=left;verticalAlign=top;spacingLeft=4;spacingRight=4;overflow=hidden;rotatable=0;points=[[0,0.5],[1,0.5]];portConstraint=eastwest;" parent="XobfELes2eheLk3CZ_iE-1" vertex="1">
                    <mxGeometry y="286" width="160" height="26" as="geometry"/>
                </mxCell>
                <mxCell id="LKVzIDbZIAc9AaPxp5Y8-24" value="telefone: String" style="text;strokeColor=none;fillColor=none;align=left;verticalAlign=top;spacingLeft=4;spacingRight=4;overflow=hidden;rotatable=0;points=[[0,0.5],[1,0.5]];portConstraint=eastwest;" parent="XobfELes2eheLk3CZ_iE-1" vertex="1">
                    <mxGeometry y="312" width="160" height="26" as="geometry"/>
                </mxCell>
                <mxCell id="pnKr05B_UNKHC8w2uhpG-7" value="turmas: Turma[]" style="text;strokeColor=none;fillColor=none;align=left;verticalAlign=top;spacingLeft=4;spacingRight=4;overflow=hidden;rotatable=0;points=[[0,0.5],[1,0.5]];portConstraint=eastwest;" parent="XobfELes2eheLk3CZ_iE-1" vertex="1">
                    <mxGeometry y="338" width="160" height="26" as="geometry"/>
                </mxCell>
                <mxCell id="LKVzIDbZIAc9AaPxp5Y8-1" value="Professor" style="swimlane;fontStyle=0;childLayout=stackLayout;horizontal=1;startSize=26;fillColor=none;horizontalStack=0;resizeParent=1;resizeParentMax=0;resizeLast=0;collapsible=1;marginBottom=0;" parent="1" vertex="1">
                    <mxGeometry x="545" y="660" width="180" height="208" as="geometry"/>
                </mxCell>
                <mxCell id="LKVzIDbZIAc9AaPxp5Y8-2" value="_id: ObjectId" style="text;strokeColor=none;fillColor=none;align=left;verticalAlign=top;spacingLeft=4;spacingRight=4;overflow=hidden;rotatable=0;points=[[0,0.5],[1,0.5]];portConstraint=eastwest;" parent="LKVzIDbZIAc9AaPxp5Y8-1" vertex="1">
                    <mxGeometry y="26" width="180" height="26" as="geometry"/>
                </mxCell>
                <mxCell id="LKVzIDbZIAc9AaPxp5Y8-3" value="nome: String" style="text;strokeColor=none;fillColor=none;align=left;verticalAlign=top;spacingLeft=4;spacingRight=4;overflow=hidden;rotatable=0;points=[[0,0.5],[1,0.5]];portConstraint=eastwest;" parent="LKVzIDbZIAc9AaPxp5Y8-1" vertex="1">
                    <mxGeometry y="52" width="180" height="26" as="geometry"/>
                </mxCell>
                <mxCell id="LKVzIDbZIAc9AaPxp5Y8-4" value="formacao: String" style="text;strokeColor=none;fillColor=none;align=left;verticalAlign=top;spacingLeft=4;spacingRight=4;overflow=hidden;rotatable=0;points=[[0,0.5],[1,0.5]];portConstraint=eastwest;" parent="LKVzIDbZIAc9AaPxp5Y8-1" vertex="1">
                    <mxGeometry y="78" width="180" height="26" as="geometry"/>
                </mxCell>
                <mxCell id="Z20Oo2uiIgpjTULkXjDu-2" value="cpf: String" style="text;strokeColor=none;fillColor=none;align=left;verticalAlign=top;spacingLeft=4;spacingRight=4;overflow=hidden;rotatable=0;points=[[0,0.5],[1,0.5]];portConstraint=eastwest;" parent="LKVzIDbZIAc9AaPxp5Y8-1" vertex="1">
                    <mxGeometry y="104" width="180" height="26" as="geometry"/>
                </mxCell>
                <mxCell id="Z20Oo2uiIgpjTULkXjDu-3" value="data_nascimento: DateTime" style="text;strokeColor=none;fillColor=none;align=left;verticalAlign=top;spacingLeft=4;spacingRight=4;overflow=hidden;rotatable=0;points=[[0,0.5],[1,0.5]];portConstraint=eastwest;" parent="LKVzIDbZIAc9AaPxp5Y8-1" vertex="1">
                    <mxGeometry y="130" width="180" height="26" as="geometry"/>
                </mxCell>
                <mxCell id="Z20Oo2uiIgpjTULkXjDu-4" value="email: String" style="text;strokeColor=none;fillColor=none;align=left;verticalAlign=top;spacingLeft=4;spacingRight=4;overflow=hidden;rotatable=0;points=[[0,0.5],[1,0.5]];portConstraint=eastwest;" parent="LKVzIDbZIAc9AaPxp5Y8-1" vertex="1">
                    <mxGeometry y="156" width="180" height="26" as="geometry"/>
                </mxCell>
                <mxCell id="Z20Oo2uiIgpjTULkXjDu-5" value="telefone: String" style="text;strokeColor=none;fillColor=none;align=left;verticalAlign=top;spacingLeft=4;spacingRight=4;overflow=hidden;rotatable=0;points=[[0,0.5],[1,0.5]];portConstraint=eastwest;" parent="LKVzIDbZIAc9AaPxp5Y8-1" vertex="1">
                    <mxGeometry y="182" width="180" height="26" as="geometry"/>
                </mxCell>
                <mxCell id="LKVzIDbZIAc9AaPxp5Y8-5" value="Turma" style="swimlane;fontStyle=0;childLayout=stackLayout;horizontal=1;startSize=26;fillColor=none;horizontalStack=0;resizeParent=1;resizeParentMax=0;resizeLast=0;collapsible=1;marginBottom=0;" parent="1" vertex="1">
                    <mxGeometry x="345" y="540" width="140" height="182" as="geometry"/>
                </mxCell>
                <mxCell id="LKVzIDbZIAc9AaPxp5Y8-6" value="_id: ObjectId" style="text;strokeColor=none;fillColor=none;align=left;verticalAlign=top;spacingLeft=4;spacingRight=4;overflow=hidden;rotatable=0;points=[[0,0.5],[1,0.5]];portConstraint=eastwest;" parent="LKVzIDbZIAc9AaPxp5Y8-5" vertex="1">
                    <mxGeometry y="26" width="140" height="26" as="geometry"/>
                </mxCell>
                <mxCell id="WQJ7P3IoUpaGdgbHNxd2-1" value="curso_id: ObjectId" style="text;strokeColor=none;fillColor=none;align=left;verticalAlign=top;spacingLeft=4;spacingRight=4;overflow=hidden;rotatable=0;points=[[0,0.5],[1,0.5]];portConstraint=eastwest;" vertex="1" parent="LKVzIDbZIAc9AaPxp5Y8-5">
                    <mxGeometry y="52" width="140" height="26" as="geometry"/>
                </mxCell>
                <mxCell id="LKVzIDbZIAc9AaPxp5Y8-7" value="dia_semana: String" style="text;strokeColor=none;fillColor=none;align=left;verticalAlign=top;spacingLeft=4;spacingRight=4;overflow=hidden;rotatable=0;points=[[0,0.5],[1,0.5]];portConstraint=eastwest;" parent="LKVzIDbZIAc9AaPxp5Y8-5" vertex="1">
                    <mxGeometry y="78" width="140" height="26" as="geometry"/>
                </mxCell>
                <mxCell id="LKVzIDbZIAc9AaPxp5Y8-8" value="hora_inicial: Int" style="text;strokeColor=none;fillColor=none;align=left;verticalAlign=top;spacingLeft=4;spacingRight=4;overflow=hidden;rotatable=0;points=[[0,0.5],[1,0.5]];portConstraint=eastwest;" parent="LKVzIDbZIAc9AaPxp5Y8-5" vertex="1">
                    <mxGeometry y="104" width="140" height="26" as="geometry"/>
                </mxCell>
                <mxCell id="Nh1p_xW2Dm00-HK53bh6-1" value="hora_final: Int" style="text;strokeColor=none;fillColor=none;align=left;verticalAlign=top;spacingLeft=4;spacingRight=4;overflow=hidden;rotatable=0;points=[[0,0.5],[1,0.5]];portConstraint=eastwest;" parent="LKVzIDbZIAc9AaPxp5Y8-5" vertex="1">
                    <mxGeometry y="130" width="140" height="26" as="geometry"/>
                </mxCell>
                <mxCell id="pnKr05B_UNKHC8w2uhpG-12" value="alunos: Aluno[]" style="text;strokeColor=none;fillColor=none;align=left;verticalAlign=top;spacingLeft=4;spacingRight=4;overflow=hidden;rotatable=0;points=[[0,0.5],[1,0.5]];portConstraint=eastwest;" parent="LKVzIDbZIAc9AaPxp5Y8-5" vertex="1">
                    <mxGeometry y="156" width="140" height="26" as="geometry"/>
                </mxCell>
                <mxCell id="LKVzIDbZIAc9AaPxp5Y8-9" value="Curso" style="swimlane;fontStyle=0;childLayout=stackLayout;horizontal=1;startSize=26;fillColor=none;horizontalStack=0;resizeParent=1;resizeParentMax=0;resizeLast=0;collapsible=1;marginBottom=0;" parent="1" vertex="1">
                    <mxGeometry x="545" y="350" width="140" height="130" as="geometry"/>
                </mxCell>
                <mxCell id="LKVzIDbZIAc9AaPxp5Y8-10" value="_id: ObjectId" style="text;strokeColor=none;fillColor=none;align=left;verticalAlign=top;spacingLeft=4;spacingRight=4;overflow=hidden;rotatable=0;points=[[0,0.5],[1,0.5]];portConstraint=eastwest;" parent="LKVzIDbZIAc9AaPxp5Y8-9" vertex="1">
                    <mxGeometry y="26" width="140" height="26" as="geometry"/>
                </mxCell>
                <mxCell id="LKVzIDbZIAc9AaPxp5Y8-11" value="nome: String" style="text;strokeColor=none;fillColor=none;align=left;verticalAlign=top;spacingLeft=4;spacingRight=4;overflow=hidden;rotatable=0;points=[[0,0.5],[1,0.5]];portConstraint=eastwest;" parent="LKVzIDbZIAc9AaPxp5Y8-9" vertex="1">
                    <mxGeometry y="52" width="140" height="26" as="geometry"/>
                </mxCell>
                <mxCell id="LKVzIDbZIAc9AaPxp5Y8-12" value="nivel: String" style="text;strokeColor=none;fillColor=none;align=left;verticalAlign=top;spacingLeft=4;spacingRight=4;overflow=hidden;rotatable=0;points=[[0,0.5],[1,0.5]];portConstraint=eastwest;" parent="LKVzIDbZIAc9AaPxp5Y8-9" vertex="1">
                    <mxGeometry y="78" width="140" height="26" as="geometry"/>
                </mxCell>
                <mxCell id="Z20Oo2uiIgpjTULkXjDu-1" value="area: String" style="text;strokeColor=none;fillColor=none;align=left;verticalAlign=top;spacingLeft=4;spacingRight=4;overflow=hidden;rotatable=0;points=[[0,0.5],[1,0.5]];portConstraint=eastwest;" parent="LKVzIDbZIAc9AaPxp5Y8-9" vertex="1">
                    <mxGeometry y="104" width="140" height="26" as="geometry"/>
                </mxCell>
                <mxCell id="Nh1p_xW2Dm00-HK53bh6-8" value="" style="endArrow=diamondThin;endFill=1;endSize=24;html=1;entryX=0.5;entryY=0;entryDx=0;entryDy=0;exitX=0.5;exitY=0;exitDx=0;exitDy=0;" parent="1" source="LKVzIDbZIAc9AaPxp5Y8-5" target="LKVzIDbZIAc9AaPxp5Y8-9" edge="1">
                    <mxGeometry width="160" relative="1" as="geometry">
                        <mxPoint x="450" y="290" as="sourcePoint"/>
                        <mxPoint x="610" y="290" as="targetPoint"/>
                        <Array as="points">
                            <mxPoint x="415" y="290"/>
                            <mxPoint x="615" y="290"/>
                        </Array>
                    </mxGeometry>
                </mxCell>
                <mxCell id="Nh1p_xW2Dm00-HK53bh6-9" value="0...*" style="edgeLabel;html=1;align=center;verticalAlign=middle;resizable=0;points=[];" parent="Nh1p_xW2Dm00-HK53bh6-8" vertex="1" connectable="0">
                    <mxGeometry x="-0.9337" y="1" relative="1" as="geometry">
                        <mxPoint x="-14" y="-4" as="offset"/>
                    </mxGeometry>
                </mxCell>
                <mxCell id="pnKr05B_UNKHC8w2uhpG-2" value="1" style="edgeLabel;html=1;align=center;verticalAlign=middle;resizable=0;points=[];" parent="Nh1p_xW2Dm00-HK53bh6-8" vertex="1" connectable="0">
                    <mxGeometry x="0.8196" y="1" relative="1" as="geometry">
                        <mxPoint x="14" y="16" as="offset"/>
                    </mxGeometry>
                </mxCell>
                <mxCell id="Nh1p_xW2Dm00-HK53bh6-11" value="" style="endArrow=diamondThin;endFill=0;endSize=24;html=1;entryX=0.25;entryY=0;entryDx=0;entryDy=0;exitX=0.441;exitY=-0.004;exitDx=0;exitDy=0;exitPerimeter=0;" parent="1" source="XobfELes2eheLk3CZ_iE-1" target="LKVzIDbZIAc9AaPxp5Y8-5" edge="1">
                    <mxGeometry width="160" relative="1" as="geometry">
                        <mxPoint x="240" y="560" as="sourcePoint"/>
                        <mxPoint x="400" y="560" as="targetPoint"/>
                        <Array as="points">
                            <mxPoint x="196" y="350"/>
                            <mxPoint x="380" y="350"/>
                        </Array>
                    </mxGeometry>
                </mxCell>
                <mxCell id="Nh1p_xW2Dm00-HK53bh6-12" value="0...*" style="edgeLabel;html=1;align=center;verticalAlign=middle;resizable=0;points=[];" parent="Nh1p_xW2Dm00-HK53bh6-11" vertex="1" connectable="0">
                    <mxGeometry x="-0.9318" relative="1" as="geometry">
                        <mxPoint x="-16" y="3" as="offset"/>
                    </mxGeometry>
                </mxCell>
                <mxCell id="Nh1p_xW2Dm00-HK53bh6-13" value="0...*" style="edgeLabel;html=1;align=center;verticalAlign=middle;resizable=0;points=[];" parent="Nh1p_xW2Dm00-HK53bh6-11" vertex="1" connectable="0">
                    <mxGeometry x="0.7586" relative="1" as="geometry">
                        <mxPoint x="-20" y="31" as="offset"/>
                    </mxGeometry>
                </mxCell>
                <mxCell id="pnKr05B_UNKHC8w2uhpG-3" value="" style="endArrow=diamondThin;endFill=0;endSize=24;html=1;entryX=0.83;entryY=0.006;entryDx=0;entryDy=0;entryPerimeter=0;exitX=0.145;exitY=-0.006;exitDx=0;exitDy=0;exitPerimeter=0;" parent="1" source="LKVzIDbZIAc9AaPxp5Y8-1" target="LKVzIDbZIAc9AaPxp5Y8-5" edge="1">
                    <mxGeometry width="160" relative="1" as="geometry">
                        <mxPoint x="600" y="640" as="sourcePoint"/>
                        <mxPoint x="460" y="490" as="targetPoint"/>
                        <Array as="points">
                            <mxPoint x="570" y="500"/>
                            <mxPoint x="461" y="500"/>
                        </Array>
                    </mxGeometry>
                </mxCell>
                <mxCell id="pnKr05B_UNKHC8w2uhpG-5" value="0...*" style="edgeLabel;html=1;align=center;verticalAlign=middle;resizable=0;points=[];" parent="pnKr05B_UNKHC8w2uhpG-3" vertex="1" connectable="0">
                    <mxGeometry x="0.7124" y="1" relative="1" as="geometry">
                        <mxPoint x="26" y="19" as="offset"/>
                    </mxGeometry>
                </mxCell>
                <mxCell id="pnKr05B_UNKHC8w2uhpG-6" value="0...1" style="edgeLabel;html=1;align=center;verticalAlign=middle;resizable=0;points=[];" parent="pnKr05B_UNKHC8w2uhpG-3" vertex="1" connectable="0">
                    <mxGeometry x="-0.8057" relative="1" as="geometry">
                        <mxPoint x="-23" y="4" as="offset"/>
                    </mxGeometry>
                </mxCell>
            </root>
        </mxGraphModel>
    </diagram>
</mxfile>